<?xml version="1.0" standalone="no"?>
<!DOCTYPE svg PUBLIC "-//W3C//DTD SVG 20010904//EN"
 "http://www.w3.org/TR/2001/REC-SVG-20010904/DTD/svg10.dtd">
<svg version="1.0" xmlns="http://www.w3.org/2000/svg"
 width="1036.000000pt" height="1034.000000pt" viewBox="0 0 1036.000000 1034.000000"
 preserveAspectRatio="xMidYMid meet">

<g transform="translate(0.000000,1034.000000) scale(0.100000,-0.100000)"
fill="#000000" stroke="none">
<path d="M7260 10304 c-283 -18 -534 -33 -557 -33 l-43 -1 0 -120 0 -120 315
0 315 0 0 -1330 0 -1330 260 0 260 0 0 1485 c0 1408 -1 1485 -17 1484 -10 -1
-250 -16 -533 -35z"/>
<path d="M5045 8554 c-209 -29 -299 -54 -422 -119 -105 -55 -180 -113 -267
-205 -222 -235 -326 -536 -326 -940 0 -327 63 -568 205 -787 69 -106 213 -252
309 -313 l68 -44 -183 -27 c-101 -15 -220 -35 -264 -44 -44 -9 -100 -21 -125
-26 -25 -4 -61 -13 -80 -18 -294 -83 -362 -109 -492 -184 -460 -266 79 -575
1227 -702 72 -8 146 -17 165 -20 103 -15 618 -37 907 -38 l332 -2 3 -1590 3
-1590 22 -65 c28 -81 76 -150 134 -193 39 -29 50 -32 115 -32 62 0 75 3 108
28 78 60 124 132 146 233 8 35 11 516 11 1634 -1 872 2 1590 6 1596 5 6 58 16
118 23 259 30 421 52 560 77 50 9 105 18 123 21 l33 5 -1 -1113 c-1 -1007 1
-1119 16 -1169 46 -155 143 -250 255 -250 37 0 93 23 130 52 37 31 90 114 111
176 l23 67 3 1201 3 1201 66 34 c86 44 178 131 191 182 41 151 -186 298 -633
411 -217 55 -433 93 -750 130 -280 33 -634 55 -915 56 l-185 0 45 37 c198 161
339 399 399 673 62 288 43 655 -46 905 -136 379 -420 632 -794 709 -76 15
-297 28 -354 20z m279 -254 c112 -28 185 -71 266 -156 161 -170 233 -434 233
-854 0 -314 -36 -514 -124 -698 -50 -104 -151 -214 -238 -261 -175 -93 -444
-95 -614 -4 -29 16 -84 60 -122 98 -115 114 -189 290 -227 535 -17 114 -17
546 0 660 38 245 112 421 227 535 38 39 93 83 122 98 124 66 324 86 477 47z"/>
<path d="M3066 7109 c-158 -10 -286 -32 -384 -65 -330 -111 -523 -293 -621
-589 -63 -190 -79 -360 -91 -960 -5 -258 -12 -525 -15 -592 -14 -279 -67 -479
-170 -633 -107 -161 -245 -234 -484 -256 l-71 -7 0 -441 0 -442 94 -12 c312
-39 465 -171 564 -482 55 -172 68 -334 77 -915 11 -738 38 -953 146 -1170 128
-257 349 -424 648 -490 147 -33 259 -44 529 -52 l232 -6 0 445 0 445 -157 6
c-87 3 -185 11 -218 17 -114 22 -213 90 -257 175 -43 82 -49 130 -58 455 -21
697 -34 913 -66 1110 -71 424 -215 669 -529 895 l-28 21 84 66 c95 74 220 201
266 268 67 99 137 260 174 400 58 222 78 482 99 1250 5 193 14 369 21 400 16
76 50 140 98 183 83 75 160 95 399 104 l172 6 0 439 0 438 -162 -1 c-90 -1
-221 -6 -292 -10z"/>
<path d="M8070 6682 l0 -439 168 -6 c250 -10 341 -35 422 -119 80 -82 86 -129
110 -924 19 -616 46 -815 147 -1069 76 -192 194 -345 381 -493 l84 -67 -28
-20 c-340 -245 -492 -529 -549 -1022 -15 -135 -45 -800 -45 -1014 0 -166 -16
-318 -41 -384 -40 -106 -135 -182 -266 -211 -37 -8 -139 -17 -225 -21 l-158
-6 0 -443 0 -444 133 0 c177 0 432 17 542 36 255 44 504 178 635 343 181 227
239 537 240 1281 1 351 15 664 36 788 48 284 180 514 341 596 63 31 190 63
290 72 l73 7 0 442 0 442 -68 6 c-98 10 -217 42 -298 82 -174 85 -302 311
-338 598 -21 165 -26 281 -36 812 -10 512 -23 683 -65 851 -104 411 -381 660
-810 728 -123 19 -376 36 -547 36 l-128 0 0 -438z"/>
<path d="M865 5454 c-433 -67 -723 -282 -837 -619 l-23 -70 -3 -1160 c-2 -830
0 -1183 8 -1240 41 -286 264 -532 590 -650 172 -62 216 -67 580 -71 306 -3
329 -2 262 10 -163 31 -332 101 -457 191 -134 95 -256 253 -307 395 l-23 65
-3 1224 c-3 1365 -7 1276 68 1426 53 106 124 192 224 271 139 110 328 194 511
227 78 14 73 15 -210 15 -198 0 -319 -5 -380 -14z"/>
</g>
</svg>
